<?xml version="1.0" encoding="utf-8"?>
<!-- Generator: Adobe Illustrator 21.1.0, SVG Export Plug-In . SVG Version: 6.00 Build 0)  -->
<svg version="1.1" xmlns="http://www.w3.org/2000/svg" xmlns:xlink="http://www.w3.org/1999/xlink" x="0px" y="0px"
	 viewBox="0 0 2185.3 4204.3" style="enable-background:new 0 0 2185.3 4204.3;" xml:space="preserve">
<style type="text/css">
	.st0{fill-rule:evenodd;clip-rule:evenodd;fill:#FFFFFF;}
</style>
<g id="Layer_2">
</g>
<g id="Layer_1">
	<g>
		<path class="st0" d="M1708,4088.5c0,0,360,0,360-360.9V487c0-359.7-360-359.7-360-359.7H450.4c0,0-360,0-360,359.7v3240.6
			c0,360.9,360,360.9,360,360.9H1708z M1078.6,3938.4c-99.1,0-178.9-80.9-178.9-180c0-99.1,79.8-180,178.9-180
			c99.3,0,180,80.9,180,180C1258.6,3857.5,1177.9,3938.4,1078.6,3938.4L1078.6,3938.4z M809.2,346.6c0-21.8,10.6-39.3,23.8-39.3
			h491.4c13.3,0,24.7,17.5,24.7,39.3v10.6c0,22.9-11.5,39.6-24.7,39.6H833c-13.3,0-23.8-17.5-23.8-39.6V346.6z M270.4,576.7H1888
			V3453H270.4V576.7z M270.4,576.7"/>
	</g>
	<circle class="st0" cx="1824.7" cy="361.8" r="33"/>
</g>
</svg>
