<?xml version="1.0" encoding="utf-8"?>
<!-- Generator: Adobe Illustrator 22.0.0, SVG Export Plug-In . SVG Version: 6.00 Build 0)  -->
<svg version="1.1" id="Camada_1" xmlns="http://www.w3.org/2000/svg" xmlns:xlink="http://www.w3.org/1999/xlink" x="0px" y="0px"
	 viewBox="0 0 42.5 42.5" style="enable-background:new 0 0 42.5 42.5;" xml:space="preserve">
<style type="text/css">
	.st0{fill:#ABCC68;}
	.st1{fill:#FFFFFF;}
</style>
<g>
	<circle class="st0" cx="21.3" cy="21.3" r="21"/>
	<path class="st1" d="M18.5,35.6V20.1h-2.6v-3.7h2.8v-3c0-1.6,0.5-2.8,1.4-3.6c1-0.8,2.3-1.3,4.1-1.3c0.5,0,0.8,0,1.3,0
		s1,0.1,1.4,0.1v3.8c-0.2,0-0.4,0-0.6,0s-0.5,0-0.8,0c-0.8,0-1.4,0.1-1.8,0.5s-0.5,1-0.5,1.8v1.6h3.7v3.8h-3.5v15.6L18.5,35.6
		L18.5,35.6z"/>
</g>
</svg>
