<?xml version="1.0" encoding="utf-8"?>
<!-- Generator: Adobe Illustrator 22.0.0, SVG Export Plug-In . SVG Version: 6.00 Build 0)  -->
<svg version="1.1" id="Camada_1" xmlns="http://www.w3.org/2000/svg" xmlns:xlink="http://www.w3.org/1999/xlink" x="0px" y="0px"
	 viewBox="0 0 42.5 42.5" style="enable-background:new 0 0 42.5 42.5;" xml:space="preserve">
<style type="text/css">
	.st0{fill:#ABCC68;}
	.st1{fill:#FFFFFF;}
</style>
<g>
	<circle class="st0" cx="21.3" cy="21.3" r="21"/>
	<g>
		<path class="st1" d="M28.5,9.4c2.5,0,4.7,2,4.7,4.7v14.4c0,2.5-2,4.7-4.7,4.7H14.1c-2.5,0-4.7-2-4.7-4.7V14.1c0-2.5,2-4.7,4.7-4.7
			L28.5,9.4 M28.5,7.5H14.1c-3.6,0-6.6,3-6.6,6.6v14.4c0,3.6,3,6.6,6.6,6.6h14.4c3.6,0,6.6-3,6.6-6.6V14.1C35,10.5,32,7.5,28.5,7.5
			L28.5,7.5z M21.4,28.8c-4.2,0-7.6-3.4-7.6-7.6s3.4-7.6,7.6-7.6S29,17,29,21.2C28.8,25.5,25.5,28.8,21.4,28.8z M21.4,15.6
			c-3.1,0-5.6,2.5-5.6,5.6s2.5,5.6,5.6,5.6s5.6-2.5,5.6-5.6C26.9,18.1,24.4,15.6,21.4,15.6z M29.3,11.4c-0.8,0-1.6,0.7-1.6,1.6
			s0.7,1.6,1.6,1.6c0.8,0,1.6-0.7,1.6-1.6C30.8,12.2,30.1,11.4,29.3,11.4z"/>
	</g>
</g>
</svg>
