<?xml version="1.0" encoding="utf-8"?>
<!-- Generator: Adobe Illustrator 22.0.0, SVG Export Plug-In . SVG Version: 6.00 Build 0)  -->
<svg version="1.1" id="Camada_1" xmlns="http://www.w3.org/2000/svg" xmlns:xlink="http://www.w3.org/1999/xlink" x="0px" y="0px"
	 viewBox="0 0 1920 612.1" style="enable-background:new 0 0 1920 612.1;" xml:space="preserve">
<style type="text/css">
	.st0{fill:#003C4F;}
	.st1{fill:#6EAD9A;}
	.st2{fill:#00957F;}
	.st3{fill:#008081;}
	.st4{fill:#94C0B2;}
</style>
<g>
	<g>
		<path class="st0" d="M498.9,155.1c-1.3,8.6,1.7,13.9,11.7,13.9h53.1l-0.4,14.8c-18.5,1.3-38.2,1.3-56.7,1.3
			c-18,0-29.1-10.5-26.1-30.6l15.9-117.4h18.9L498.9,155.1z"/>
		<path class="st0" d="M581.7,184.9l14.4-104.3H614l-14.4,104.3H581.7z M615.1,36.2c3.8,0,5.7,2.6,5.1,6l-1.5,12.2
			c-0.6,3.6-2.1,5.1-5.9,5.1h-8.3c-3.8,0-5.7-2.1-5.3-6l1.7-12c0.4-3.4,2.1-5.4,5.7-5.4H615.1z"/>
		<path class="st0" d="M665.8,103.7C678.3,90.4,697.4,78,712.3,78c24.2,0,32.5,12.9,26.5,55.9c-6.6,46.9-22.1,53.8-50.5,53.8
			c-9.6,0-21.7-1.1-32.7-2.8c-0.2,6.9-0.6,12.6-1.7,19.9l-3.6,23.6H632l21-147.8h14.2L665.8,103.7z M658.4,172
			c10.4,0.4,18.7,0.6,23.4,0.6c28.5,0,34-5.1,38.9-40.1c4.5-31.7,1.7-38.8-12.3-38.8c-9.8,0-26.3,8.6-42.5,23.8L658.4,172z"/>
		<path class="st0" d="M865.2,133.7c-5.5,39.4-20.4,54-55,54c-34.4,0-47.8-15.2-42.3-55.5c5.5-39.4,20.2-54.2,55.4-54.2
			C858.2,78,870.9,93.2,865.2,133.7z M786.8,133.7c-4.2,29.8,1.3,38.6,23.4,38.6c23.1,0,32.3-9.4,36.5-40.1
			c4.2-30.2-1.3-38.8-23.4-38.8C800.6,93.4,791.3,101.8,786.8,133.7z"/>
		<path class="st0" d="M977.7,181.7c-10.8,4.3-30.1,5.8-42.3,5.8c-35.7,0-47.3-18-42-57.2c5.7-41.1,20.2-52.3,56.5-52.3
			c32.5,0,42,11.6,38.4,33.4c-3.4,20.1-14.9,27.2-39.3,29.1l-38.2,3.4c-0.6,23.1,9.1,28.1,27.6,28.1c11.5,0,26.5-1.1,38-2.6
			L977.7,181.7z M948.8,126.8c13.8-1.1,19.5-4.7,21.7-16.9c2.5-15.8-5.9-16.7-22.9-16.7c-22.7,0-30.6,6-35.5,37.3L948.8,126.8z"/>
		<path class="st0" d="M1035,132.4c-14.4-6.6-21.7-14.1-19.7-29.8c2.5-20.3,16.8-25.1,43.3-24.6c14.4,0.2,31.6,1.5,43.5,3.2
			l-2.3,13.1c-13-0.4-25.5-0.9-40.8-1.1c-18,0-24.8,0.4-26.1,10.7c-1.3,8.6,3.6,11.1,12.5,15.2l28.9,12.9
			c15.9,7.1,22.7,13.5,20.6,29.6c-3.2,23.3-19.7,25.7-48.4,25.7c-20,0-24.2-1.3-39.5-3l2.1-13.3c10.2,0.9,22.9,1.1,33.1,1.1
			c26.1-0.2,33.3-2.4,35-12.2c1.3-8.8-4-10.3-13.4-14.6L1035,132.4z"/>
		<path class="st0" d="M1202.9,182.3c-10.8,3.4-24,5.1-35.5,5.1c-36.3,0-48-15.6-42.5-55.5c5.7-39.8,20.4-54,55.6-54
			c9.8,0,23.6,1.3,33.1,5.1l-3,11.4c-9.1-0.9-20.6-1.1-27.2-1.1c-25.3,0-35.7,7.3-39.7,40.1c-4,32.1,2.8,38.6,26.8,38.6
			c6.8,0,20.4-0.4,31-2.1L1202.9,182.3z"/>
		<path class="st0" d="M1318.9,184.9h-14l1.5-22.7c-17.2,16.9-32.1,25.5-47.8,25.5c-18.9,0-27.4-11.1-24.6-29.1l10.8-78h18
			l-10.4,73.5c-1.9,12.9,1.7,17.8,12.3,17.8c13,0,23.8-8.1,41.4-24.2l9.1-67h18L1318.9,184.9z"/>
		<path class="st0" d="M1378.7,156.6c-1.5,9.9,1.9,13.5,11.7,13.5h10.4l0.6,14.1c-4,1.7-14,2.6-18.7,2.6c-15.9,0-24.8-9.9-22.5-27
			L1377.7,35h18L1378.7,156.6z"/>
		<path class="st0" d="M1452,156.6c-1.5,10.1,1.5,13.5,11.5,13.5h16.1l0.6,13.9c-6.8,1.9-18.5,2.8-23.1,2.8
			c-17.8,0-25.9-10.5-23.4-28.5l8.9-63.4h-18.9l1.7-13.3l19.3-0.9l4.2-31.1h17.8l-4.2,30.8h32.9l-2.1,14.4h-32.9L1452,156.6z"/>
		<path class="st0" d="M1595.7,184.9h-14l1.5-22.7c-17.2,16.9-32.1,25.5-47.8,25.5c-18.9,0-27.4-11.1-24.6-29.1l10.8-78h18
			l-10.4,73.5c-1.9,12.9,1.7,17.8,12.3,17.8c13,0,23.8-8.1,41.4-24.2l9.1-67h18L1595.7,184.9z"/>
		<path class="st0" d="M1708.7,95.1h-5.3c-12.1,0-24.2,8.1-42.7,22.3l-9.3,67.5h-18l14.6-104.3h13.8l-1.5,24.2
			c17.2-17.1,33.3-26.8,47.6-26.8h5.3L1708.7,95.1z"/>
		<path class="st0" d="M1789.9,184.9l1.3-21c-11.5,13.5-27.8,23.6-46.1,23.6c-24.6,0-32.9-14.1-27-55.9
			c6.6-46.9,22.1-53.5,51.6-53.5c14.9,0,34.2,2.1,48.6,4.9l-14.2,102H1789.9z M1798.6,93.9c-10.2-0.4-18.5-0.6-23.4-0.6
			c-28.4,0-34,5.1-39.1,39.8c-4.5,31.5-1.7,38.6,12.5,38.6c13.8,0,27-8.4,42.3-23.3L1798.6,93.9z"/>
		<path class="st0" d="M589.5,250.2c-13.2-1.5-24.8-2.1-37.8-2.1c-35.5,0-48.2,13.5-55,64.7c-5.3,46.5,1.3,63.4,26.5,63.4
			c16.6,0,29.1-9.9,43.1-23.6l7.2-52.3h13.6L575.1,386h-10l1.1-21.4c-13.4,15.2-28.7,24-47.1,24c-31.8,0-43.1-22.9-36.7-77.1
			c7.9-59.5,28-75.8,67.9-75.8c16.1,0,28.9,1.1,41.8,4.1L589.5,250.2z"/>
		<path class="st0" d="M696.9,383.4c-9.8,3.4-29.5,5.1-41.4,5.1c-35,0-45.6-16.9-40.1-56.3c5.9-42.4,20.8-52.7,55.2-52.7
			c29.5,0,41.4,9.6,36.9,32.8c-3.8,19.1-14.2,25.5-37.4,27.6l-42.3,4.1c-1.9,26.8,8.1,33,30.1,33c11.9,0,27.4-1.5,37.8-2.8
			L696.9,383.4z M670.2,329.5c15.3-1.7,21.2-5.4,23.8-18.2c4-18.4-6.8-20.1-24.4-20.1c-25.3,0-34.8,6-40.3,41.6v0.9L670.2,329.5z"/>
		<path class="st0" d="M755.5,332.3c-13.6-6-21.4-12.2-19.3-28.7c3-20.8,16.8-24.4,42.5-24c14,0.2,30.1,1.5,42,3.2l-1.7,9.6
			c-12.7-0.6-25.7-1.1-39.9-1.3c-20.2-0.2-27.8,0.4-29.7,13.5c-1.5,10.3,3.2,13.3,13,17.3l30.8,12.9c15.1,6.4,22.3,12.2,20.2,28.5
			c-3.2,23.1-19.5,25.3-46.9,25.3c-16.3,0-23.1-1.1-38.4-3l1.7-10.1c11.3,1.3,22.9,1.5,34.2,1.5c26.1-0.4,34.4-2.6,36.1-15
			c1.7-10.5-4-12.8-13.8-16.9L755.5,332.3z"/>
		<path class="st0" d="M867.6,332.3c-13.6-6-21.4-12.2-19.3-28.7c3-20.8,16.8-24.4,42.5-24c14,0.2,30.1,1.5,42,3.2l-1.7,9.6
			c-12.7-0.6-25.7-1.1-39.9-1.3c-20.2-0.2-27.8,0.4-29.7,13.5c-1.5,10.3,3.2,13.3,13,17.3l30.8,12.9c15.1,6.4,22.3,12.2,20.2,28.5
			c-3.2,23.1-19.5,25.3-46.9,25.3c-16.3,0-23.1-1.1-38.4-3l1.7-10.1c11.3,1.3,22.9,1.5,34.2,1.5c26.1-0.4,34.4-2.6,36.1-15
			c1.7-10.5-4-12.8-13.8-16.9L867.6,332.3z"/>
		<path class="st0" d="M1031.1,386l1.9-23.3c-13.2,15.4-31,25.9-48,25.9c-25.3,0-31.8-15.2-25.9-55.3c6.6-45.4,20-53.8,52-53.8
			c14,0,30.8,1.9,44.8,4.3L1041.5,386H1031.1z M1041.3,292c-11.3-0.4-20-0.9-26.3-0.9c-30.8,0-36.9,6.4-42.5,43.3
			c-4.7,32.6-2.1,42.2,14.6,42.2c13.8,0,29.5-9,45.9-25.7L1041.3,292z"/>
		<path class="st0" d="M1167.6,386h-10.4l1.9-24.2c-12.7,13.9-30.8,26.8-50.1,26.8c-22.1,0-29.5-15.8-23.8-55.3
			c6.4-45.6,20.2-53.8,51-53.8c10.4,0,22.5,1.1,33.3,2.6c0.4-6.9,0.8-12.4,1.9-19.9l3.6-26.1h13.6L1167.6,386z M1167.2,291.8
			c-11-0.4-19.5-0.9-26.5-0.9c-30.1,0-36.7,6.4-41.8,43.5c-4.5,31.1-2.3,42.2,13.6,42.2c14.6,0,29.5-8.8,46.9-25.9L1167.2,291.8z"/>
		<path class="st0" d="M1283.5,386l1.9-23.3c-13.2,15.4-31,25.9-48,25.9c-25.3,0-31.8-15.2-25.9-55.3c6.6-45.4,20-53.8,52-53.8
			c14,0,30.8,1.9,44.8,4.3L1293.9,386H1283.5z M1293.7,292c-11.3-0.4-20-0.9-26.3-0.9c-30.8,0-36.9,6.4-42.5,43.3
			c-4.7,32.6-2.1,42.2,14.6,42.2c13.8,0,29.5-9,45.9-25.7L1293.7,292z"/>
		<path class="st0" d="M1438.1,283.8c-3.4,27.8-22.7,47.3-51.2,47.3c-28.7,0-46.5-19.9-43.1-49.1c3.2-29.1,24-46.3,51.4-46.3
			C1423,235.9,1441.5,253.9,1438.1,283.8z M1395.2,240.8c-27.2,0-43.3,17.6-46.1,42.2c-3,27.2,13.4,43.1,37.8,43.1
			c26.1,0,43.1-18,45.9-43.3C1435.5,256,1420.3,240.8,1395.2,240.8z M1373.3,254.7c7.9-0.6,13.6-0.6,21.9-0.6
			c13.8,0,22.9,1.7,21,16.7c-1.1,9.2-4.9,12.9-13.8,14.6l-0.2,0.4c3,1.1,4.7,3.2,5.9,8.4l4.7,17.8h-7.2l-4.2-18
			c-1.3-4.9-4-6.4-8.3-6.4h-17.4l-3.6,24.4h-6.8L1373.3,254.7z M1392.4,282.3c10.8-0.2,15.7-1.7,17-12.2c1.3-9.6-2.8-10.7-14-10.7
			h-15.9l-3.2,22.9H1392.4z"/>
	</g>
	<g>
		<polygon class="st1" points="389.8,121.9 389.8,172.4 389.8,293.1 389.8,303.2 397.5,298.7 397.5,297.6 397.5,176.8 397.5,126.4 
					"/>
		<polygon class="st1" points="352.3,150.8 352.3,100.1 250.2,40.6 250.2,91.3 		"/>
		<polygon class="st0" points="389.8,293.1 352.7,271.8 352.7,272.2 250.2,331.9 250.2,333.5 294.3,358.9 389.8,303.2 		"/>
		<polygon class="st2" points="250.2,384.5 294.3,358.9 250.2,333.5 		"/>
		<polygon class="st0" points="248.8,332.7 248.8,332.7 236.8,325.8 145,272.9 145,323.9 249.6,384.9 250.2,384.5 250.2,333.5 		"/>
		<polygon class="st3" points="144.8,152.1 144.8,151.1 248.1,90.9 205.1,66.1 110.6,121.2 110.6,132.4 		"/>
		<polygon class="st2" points="248.8,90.5 250.2,91.3 250.2,40.6 249.6,40.2 205.1,66.1 248.1,90.9 		"/>
		<polygon class="st0" points="101.6,126.4 101.6,127.2 101.6,248 101.6,298.7 110.6,303.9 110.6,253.1 110.6,132.4 110.6,121.2 		
			"/>
		<polygon class="st1" points="250.2,331.9 352.7,272.2 352.7,271.8 250.2,212.8 		"/>
		<polygon class="st4" points="352.3,150.9 352.3,150.8 250.2,91.3 250.2,92 250.2,212.8 352.7,271.8 352.7,151.1 		"/>
		<polygon class="st4" points="144.8,152.1 144.8,272.2 145,272.3 145,266.2 145,272.3 236.8,325.8 248.8,332.7 250.2,331.9 
			250.2,212.8 		"/>
		<polygon class="st0" points="248.8,90.5 248.1,90.9 144.8,151.1 144.8,152.1 250.2,212.8 250.2,92 250.2,91.3 		"/>
	</g>
	<g>
		<path class="st1" d="M511.4,482c2-1.2,4-2,6-2.4c2-0.4,3.6-0.6,4.9-0.6c1.3,0,6.8,0.1,16.5,0.4c9.7,0.3,16.9,0.8,21.8,1.5
			l-2.1,13.5h-32.5c-2.8,0-4.7,0.7-5.6,2.1c-0.7,1.1-1.2,2.6-1.4,4.4l-2.1,13l32.9,1.2l-2.2,13.4l-33.2,1.2l-2.2,13.5
			c-0.4,2.5-0.1,4.1,0.8,4.8c0.3,0.2,0.5,0.4,0.7,0.6c0.2,0.2,0.4,0.3,0.9,0.3c0.4,0.1,0.7,0.2,0.9,0.2c0.2,0.1,0.5,0.1,1,0.1
			c0.6,0,1.3,0,2,0h31.3l-2.2,13.4c-4.4,0.5-11.5,1-21.3,1.4c-9.8,0.4-15.2,0.6-16.4,0.6s-2.6-0.2-4.5-0.7
			c-7-1.7-10.5-6.1-10.5-13.3c0-1.2,0.1-2.5,0.2-3.8l8-50.6C504.4,489.2,507.1,484.5,511.4,482z"/>
		<path class="st1" d="M584.2,564.2l31.5-43.5L597.3,479h17.9l11.6,28.9l20.8-28.9h18.4l-32.4,44.7l17.9,40.5h-17.9l-11.2-27.7
			l-19.9,27.7H584.2z"/>
		<path class="st1" d="M727.7,478c10.6,0,20.3,1.4,29.1,4.2l-2,12.7c-9.7-1.2-17.9-1.9-24.6-1.9c-0.3,0-0.6,0-0.8,0s-0.6,0-1.3,0
			c-0.7,0-1.4,0-2,0.1c-0.6,0-1.5,0.1-2.6,0.3s-2,0.4-2.7,0.8c-0.7,0.4-1.5,0.8-2.4,1.5c-1,0.6-1.8,1.4-2.4,2.3
			c-0.7,0.9-1.4,2.1-2.2,3.6c-0.8,1.5-1.5,3.1-2,5c-1.5,4.4-2.6,9.2-3.5,14.4c-0.9,5.2-1.3,9.5-1.3,13c0,3.5,0.4,6.4,1.3,8.7
			c1.7,4.6,5.6,7,11.8,7.2c0.9,0,3.1,0,6.6,0s10.2-0.3,19.8-1l-2,12.8c-4.1,1.4-8.3,2.3-12.5,2.7c-4.2,0.4-7.9,0.6-11.1,0.6
			c-3.2,0-5.5,0-6.7,0c-5.3-0.1-9.7-1.3-13.2-3.7c-3.5-2.4-6-5.7-7.5-9.9c-1.9-5.3-2.8-10.7-2.8-16.3c0-5.6,0.4-10.8,1.2-15.5
			c0.8-4.8,1.7-9,2.6-12.6c0.9-3.6,2.1-7.1,3.5-10.2c1.4-3.2,3-5.9,4.8-8.1c1.8-2.2,3.9-4.1,6.3-5.8C713.8,479.6,720,478,727.7,478z
			"/>
		<path class="st1" d="M808.9,549.2h29.2l-2.3,15h-35.2c-5.1,0-9-1.2-11.5-3.6c-2.6-2.4-3.8-5.5-3.8-9.3c0-1.2,0.1-2.4,0.2-3.7
			l11.1-68.7h16.2l-10.1,64.2c-0.5,2.9,0.1,4.7,1.6,5.4C805.3,548.9,806.9,549.2,808.9,549.2z"/>
		<path class="st1" d="M892.7,527.9c-0.6,3.6-0.9,6.9-0.9,9.9c0,3,0.5,5.4,1.4,7.2c1.7,3.2,5.6,4.8,11.6,4.8
			c6.1,0,10.4-1.7,13.2-5.1c2.7-3.4,4.7-9,5.9-16.8l7.8-48.9h16.4l-7.4,50.9c-2.2,13.7-6.5,23-13,28.1c-3.3,2.6-7,4.3-10.9,5.4
			c-3.9,1-7.8,1.5-11.7,1.5s-6.8-0.1-8.7-0.4c-1.9-0.2-3.8-0.6-5.8-1.1c-1.9-0.5-3.7-1.2-5.2-2.2c-1.5-0.9-2.9-2.1-4.2-3.5
			c-2.5-2.5-4.2-6.4-5.2-11.8c-0.4-2.1-0.6-4-0.6-5.6c0-4.9,0.4-9.7,1.2-14.3l7.6-47h16.3L892.7,527.9z"/>
		<path class="st1" d="M1009,550.1c7.1,0,11-2.4,11.8-7.3l0.7-4.5c0.2-1.1,0.2-2,0.2-2.7c0-0.7,0-1.4-0.1-2.2
			c-0.1-0.8-0.7-1.5-1.7-2.2c-1.1-0.7-2.7-1-4.9-1h-11.8c-6.7,0-11.5-1.5-14.3-4.4c-2.9-2.9-4.5-6.1-4.9-9.4
			c-0.2-1.7-0.3-3.3-0.3-4.7c0-1.4,0.1-2.8,0.3-4.3l1.2-8.8c1.5-9.5,5.7-15.5,12.6-18.2c3.7-1.4,8.4-2.1,14-2.1h0.1
			c0.9,0,1.7,0,2.4,0c11.9,0,21.7,1.1,29.3,3.4l-2.1,12.8c-10.9-0.8-18.4-1.2-22.4-1.2c-4,0-6.1,0-6.5,0c-3.5,0-6.1,0.5-7.8,1.4
			c-1.7,0.9-2.9,3.2-3.5,6.9l-0.6,4.2c-0.1,1.2-0.2,2.3-0.3,3.2c-0.1,0.9,0,1.7,0.4,2.3c0.4,0.6,0.7,1.1,1,1.5
			c0.3,0.3,0.9,0.6,1.7,0.8c1.2,0.3,2.9,0.5,5,0.5h12.1c5.2,0,9.2,1.3,11.9,3.8c2.7,2.5,4.3,5.4,4.9,8.7c0.4,2.5,0.6,4.5,0.6,6
			c0,1.5-0.1,2.8-0.3,4l-0.7,7.7c-1,11.8-7,18.6-18,20.3c-2.8,0.5-6.1,0.7-9.8,0.7c-13.5,0-23.8-1.2-31-3.5l2-12.8
			C987.1,549.7,996.7,550.1,1009,550.1z"/>
		<path class="st1" d="M1074.1,564.2l13.5-85.2h16.3l-13.5,85.2H1074.1z"/>
		<path class="st1" d="M1141.6,479h17.1l8.6,63.8l29.8-63.8h18.2l-41.7,85.2h-18.9L1141.6,479z"/>
		<path class="st1" d="M1257.2,482c2-1.2,4-2,6-2.4c2-0.4,3.6-0.6,4.9-0.6c1.3,0,6.8,0.1,16.5,0.4c9.7,0.3,16.9,0.8,21.8,1.5
			l-2.1,13.5h-32.5c-2.8,0-4.7,0.7-5.6,2.1c-0.7,1.1-1.2,2.6-1.4,4.4l-2.1,13l32.9,1.2l-2.2,13.4l-33.2,1.2l-2.2,13.5
			c-0.4,2.5-0.1,4.1,0.8,4.8c0.3,0.2,0.5,0.4,0.7,0.6c0.2,0.2,0.5,0.3,0.9,0.3c0.4,0.1,0.7,0.2,0.9,0.2c0.2,0.1,0.5,0.1,1,0.1
			c0.6,0,1.3,0,2,0h31.3l-2.2,13.4c-4.4,0.5-11.5,1-21.3,1.4c-9.8,0.4-15.2,0.6-16.4,0.6c-1.1,0-2.6-0.2-4.5-0.7
			c-7-1.7-10.5-6.1-10.5-13.3c0-1.2,0.1-2.5,0.2-3.8l8-50.6C1250.3,489.2,1253,484.5,1257.2,482z"/>
	</g>
</g>
</svg>
