<?xml version="1.0" encoding="utf-8"?>
<!-- Generator: Adobe Illustrator 22.0.0, SVG Export Plug-In . SVG Version: 6.00 Build 0)  -->
<svg version="1.1" id="Layer_1" xmlns="http://www.w3.org/2000/svg" xmlns:xlink="http://www.w3.org/1999/xlink" x="0px" y="0px"
	 viewBox="0 0 168.7 52" style="enable-background:new 0 0 168.7 52;" xml:space="preserve">
<style type="text/css">
	.st0{fill:#1F4052;}
	.st1{fill:#ABCC68;}
	.st2{fill:#288A85;}
	.st3{fill:#68B7A0;}
</style>
<g>
	<g>
		<path class="st0" d="M345.5-548.7c-2.9,21.5-9.5,28.4-25.2,28.4c-15.2,0-21.3-7.3-18.3-28.9c2.9-20.8,9.3-28.4,25.6-28.4
			C342.7-577.6,348.5-570,345.5-548.7z M309.3-548.7c-2.3,16.7,0.2,22.1,11.1,22.1c11,0,15.3-5.4,17.8-22.6
			c2.5-17.2-0.2-22.1-11.1-22.1C315.8-571.3,311.7-566,309.3-548.7z"/>
	</g>
	<g>
		<path class="st0" d="M361.2-576.6c6.1-0.6,10.7-0.7,18.7-0.7c11.5,0,17.7,3.7,16,16.3c-1.2,8.4-4.6,13-12.3,13.9l-0.1,0.4
			c3,0.9,5,3.4,5.8,8.1l3.5,17.3h-7.2l-3.3-17.5c-0.8-4.2-2.7-5.6-6.2-5.6l-12.6-0.1l-3.3,23.2h-6.9L361.2-576.6z M376.2-550.4
			c8.1-0.1,11.4-2.5,12.6-10.8c1.1-7.7-1.1-9.9-9.1-9.9c-5,0-9.2,0-12.4,0.1l-2.9,20.7H376.2z"/>
	</g>
	<g>
		<path class="st0" d="M428.1-570.3l-6.9,49h-7l6.9-49h-17.8l0.9-6.2h42.6l-0.8,6.2H428.1z"/>
	</g>
	<g>
		<path class="st0" d="M492.2-548.7c-2.9,21.5-9.5,28.4-25.2,28.4c-15.2,0-21.3-7.3-18.3-28.9c2.9-20.8,9.3-28.4,25.6-28.4
			C489.4-577.6,495.2-570,492.2-548.7z M456-548.7c-2.3,16.7,0.2,22.1,11.1,22.1c11,0,15.3-5.4,17.8-22.6
			c2.5-17.2-0.2-22.1-11.1-22.1C462.5-571.3,458.4-566,456-548.7z"/>
	</g>
	<g>
		<path class="st0" d="M511.9-546.5c-8.3-3.4-10.4-8.7-9.5-16.3c1.7-12.4,8.6-14.8,21.5-14.8c5.7,0,12.3,0.6,18,2.2l-1.2,8.3
			c-4.8-0.2-11.2-0.2-17.1-0.2c-5.8-0.1-8.2,0.1-9,5.3c-0.6,3.8,0.4,4.6,4.4,6.1l9.9,3.8c8.7,3.4,10.6,8.2,9.5,16.4
			c-1.6,12.4-7.1,15.5-21.8,15.5c-3.8,0-11.1-0.4-19-2.2l1.3-8.7c10.2,0.2,14.8,0.4,17.2,0.4c7.3,0,9.5-0.9,10.2-5.7
			c0.5-3.8-0.6-4.6-4-5.8L511.9-546.5z"/>
	</g>
	<g>
		<path class="st0" d="M588.7-521.3h-12.2l3.4-24.6h-19.1l-3.5,24.6H545l7.8-55.3h12.3l-3,21.1h19.2l3-21.1h12.2L588.7-521.3z"/>
	</g>
	<g>
		<path class="st0" d="M648.9-548.4c-3,22-10.1,28.2-26.6,28.2c-16.8,0-23.4-6.9-20.4-29.2c3-21.4,9.9-28.2,26.8-28.2
			C645.1-577.6,652-570.6,648.9-548.4z M614.7-548.4c-2.1,14.4-0.4,18.3,7.9,18.3c8.4,0,11.4-4.1,13.6-19.3
			c2.2-14.8,0.2-18.3-7.9-18.3C619.8-567.8,617-563.8,614.7-548.4z"/>
	</g>
	<g>
		<path class="st0" d="M693.9-522.5c-5.4,1.6-10.1,2.2-17.6,2.2c-17.1,0-22.8-8.3-19.9-29.1c3-21.4,9.5-28.1,26.6-28.1
			c7.7,0,11.6,0.6,16.5,1.9l-1.6,9.1c-5.2-0.3-8.7-0.4-15.4-0.4c-8,0-11.3,2.8-13.4,18.5c-1.9,13.7-0.5,17.5,7.5,17.5
			c7.5,0.1,11.9-0.2,16.7-0.7L693.9-522.5z"/>
	</g>
	<g>
		<path class="st0" d="M730.4-549.2c1.3,1,2.7,3.2,3.6,5l11.5,22.9H732l-11.4-24.4h-4.6c0.2,1.8,0.1,3.8-0.2,5.5l-2.6,18.8H701
			l7.8-55.3H721l-2.3,16.3c-0.2,2-0.6,3.9-1.3,5.9h4.5l16.5-22.2h14.1l-17.2,22.8c-1.4,2-3,3.3-4.8,4.2L730.4-549.2z"/>
	</g>
</g>
<g>
	<g>
		<polygon class="st0" points="100.7,-549.4 110.4,-532.6 120.3,-549.4 		"/>
		<path class="st0" d="M110.4-529.6C110.4-529.6,110.4-529.6,110.4-529.6c-1.1,0-2.1-0.6-2.6-1.5l-9.7-16.9c-0.5-0.9-0.5-2.1,0-3
			c0.5-0.9,1.5-1.5,2.6-1.5h19.6c1.1,0,2.1,0.6,2.6,1.5c0.5,0.9,0.5,2.1,0,3l-9.9,16.9C112.5-530.2,111.5-529.6,110.4-529.6z
			 M105.9-546.4l4.6,7.9l4.6-7.9H105.9z"/>
	</g>
	<g>
		<polygon class="st0" points="277.9,-540.1 283.6,-550 283.1,-550.9 271.6,-550.9 		"/>
		<path class="st0" d="M277.9-537.1c-1.1,0-2.1-0.6-2.6-1.5l-6.3-10.8c-0.5-0.9-0.5-2.1,0-3c0.5-0.9,1.5-1.5,2.6-1.5h11.5
			c1.1,0,2.1,0.6,2.6,1.5l0.5,0.9c0.5,0.9,0.5,2.1,0,3l-5.7,9.9C279.9-537.6,279-537.1,277.9-537.1
			C277.9-537.1,277.9-537.1,277.9-537.1z M276.8-547.9l1.1,1.8l1-1.8H276.8z"/>
	</g>
	<g>
		<polygon class="st1" points="245.6,-550.9 238.8,-531.8 230.6,-572.6 220.2,-510.1 212.5,-617 182.7,-549.4 160.6,-549.4 
			193,-492.1 250.2,-492.1 277.9,-540.1 271.6,-550.9 		"/>
		<path class="st0" d="M250.2-489.1H193c-1.1,0-2.1-0.6-2.6-1.5L158-548c-0.5-0.9-0.5-2.1,0-3c0.5-0.9,1.5-1.5,2.6-1.5h20.1
			l29.1-65.8c0.6-1.3,1.9-2,3.3-1.7c1.4,0.2,2.4,1.4,2.5,2.7l5.9,81.8l6.3-37.7c0.2-1.4,1.5-2.5,2.9-2.5c1.4,0,2.7,1,3,2.4l6,30.1
			l3.2-8.8c0.4-1.2,1.6-2,2.8-2h26c1.1,0,2.1,0.6,2.6,1.5l6.3,10.8c0.5,0.9,0.5,2.1,0,3l-27.7,48
			C252.3-489.7,251.3-489.1,250.2-489.1z M194.7-495.1h53.7l26-45l-4.5-7.8h-22.2l-6.1,17c-0.5,1.3-1.7,2.1-3,2
			c-1.3-0.1-2.5-1.1-2.7-2.4l-4.9-24.7l-7.7,46.4c-0.2,1.5-1.6,2.6-3.1,2.5c-1.5-0.1-2.7-1.3-2.9-2.8l-6.8-94.9l-25,56.5
			c-0.5,1.1-1.6,1.8-2.7,1.8h-16.9L194.7-495.1z"/>
	</g>
	<g>
		<polygon class="st1" points="160.6,-549.4 120.3,-549.4 110.4,-532.6 133.8,-492.1 193,-492.1 		"/>
		<path class="st0" d="M193-489.1h-59.2c-1.1,0-2.1-0.6-2.6-1.5l-23.4-40.5c-0.5-0.9-0.5-2.1,0-3l9.9-16.9c0.5-0.9,1.5-1.5,2.6-1.5
			h40.3c1.1,0,2.1,0.6,2.6,1.5l32.4,57.3c0.5,0.9,0.5,2.1,0,3C195-489.7,194.1-489.1,193-489.1z M135.5-495.1h52.3l-29-51.3H122
			l-8.1,13.9L135.5-495.1z"/>
	</g>
	<g>
		<polygon class="st1" points="250.2,-492.1 193,-492.1 205.1,-470.6 237.8,-470.6 		"/>
		<path class="st0" d="M237.8-467.6h-32.7c-1.1,0-2.1-0.6-2.6-1.5l-12.1-21.5c-0.5-0.9-0.5-2.1,0-3c0.5-0.9,1.5-1.5,2.6-1.5h57.2
			c1.1,0,2.1,0.6,2.6,1.5c0.5,0.9,0.5,2.1,0,3l-12.4,21.5C239.9-468.2,238.9-467.6,237.8-467.6z M206.9-473.6h29.2l8.9-15.5h-46.9
			L206.9-473.6z"/>
	</g>
	<g>
		<polygon class="st2" points="133.8,-492.1 146.2,-470.6 205.1,-470.6 193,-492.1 		"/>
		<path class="st0" d="M210.2-467.6h-65.8l-15.9-27.5h66.2L210.2-467.6z M147.9-473.6H200l-8.7-15.5H139L147.9-473.6z"/>
	</g>
	<g>
		<polygon class="st2" points="283.1,-550.9 237.8,-629.3 226,-629.3 271.6,-550.9 		"/>
		<path class="st0" d="M288.3-547.9h-18.4l-49.1-84.5h18.8L288.3-547.9z M273.3-553.9h4.6l-41.8-72.5h-4.9L273.3-553.9z"/>
	</g>
	<g>
		<g>
			<polygon class="st3" points="120.3,-549.4 160.6,-549.4 140.9,-584.5 			"/>
		</g>
		<g>
			<path class="st0" d="M160.6-546.4h-40.3c-1.1,0-2.1-0.6-2.6-1.5c-0.5-0.9-0.5-2.1,0-3l20.6-35c0.5-0.9,1.6-1.5,2.6-1.5
				c1.1,0,2.1,0.6,2.6,1.5l19.8,35c0.5,0.9,0.5,2.1,0,3C162.7-547,161.7-546.4,160.6-546.4z M125.6-552.4h29.9l-14.7-26L125.6-552.4
				z"/>
		</g>
	</g>
	<g>
		<polygon class="st2" points="140.9,-584.5 130.7,-602.5 100.4,-550 100.7,-549.4 120.3,-549.4 		"/>
		<path class="st0" d="M122-546.4H99l-2-3.5l33.8-58.6l13.6,24.1L122-546.4z M105.3-552.4h13.3l18.8-32l-6.8-12L105.3-552.4z"/>
	</g>
	<g>
		<g>
			<polygon class="st3" points="167.2,-629.3 146.2,-629.3 130.7,-602.5 140.9,-584.5 			"/>
		</g>
		<g>
			<path class="st0" d="M140.9-581.5C140.9-581.5,140.9-581.5,140.9-581.5c-1.1,0-2.1-0.6-2.6-1.5l-10.2-18c-0.5-0.9-0.5-2.1,0-3
				l15.5-26.8c0.5-0.9,1.5-1.5,2.6-1.5h21.1c1.1,0,2.1,0.6,2.6,1.5c0.5,0.9,0.5,2.1,0,3l-26.4,44.9
				C142.9-582,141.9-581.5,140.9-581.5z M134.1-602.5l6.8,12l21.1-35.9h-14.1L134.1-602.5z"/>
		</g>
	</g>
	<g>
		<g>
			<polygon class="st3" points="160.6,-549.4 182.7,-549.4 212.5,-617 220.2,-510.1 230.6,-572.6 238.8,-531.8 245.6,-550.9 
				271.6,-550.9 226,-629.3 167.2,-629.3 140.9,-584.5 			"/>
		</g>
		<g>
			<path class="st0" d="M220.2-507.1c0,0-0.1,0-0.1,0c-1.5-0.1-2.7-1.3-2.9-2.8l-6.8-94.9l-25,56.5c-0.5,1.1-1.6,1.8-2.7,1.8h-22
				c-1.1,0-2.1-0.6-2.6-1.5l-19.8-35c-0.5-0.9-0.5-2.1,0-3l26.4-44.9c0.5-0.9,1.5-1.5,2.6-1.5H226c1.1,0,2.1,0.6,2.6,1.5l45.6,78.5
				c0.5,0.9,0.5,2.1,0,3c-0.5,0.9-1.5,1.5-2.6,1.5h-23.9l-6.1,17c-0.5,1.3-1.7,2.1-3,2c-1.3-0.1-2.5-1.1-2.7-2.4l-4.9-24.7
				l-7.7,46.4C222.9-508.2,221.7-507.1,220.2-507.1z M212.5-620c0.2,0,0.3,0,0.5,0c1.4,0.2,2.4,1.4,2.5,2.7l5.9,81.8l6.3-37.7
				c0.2-1.4,1.5-2.5,2.9-2.5c1.4,0,2.7,1,3,2.4l6,30.1l3.2-8.8c0.4-1.2,1.6-2,2.8-2h20.8l-42.1-72.5H169l-24.6,41.9l18,32h18.3
				l29.1-65.8C210.3-619.3,211.3-620,212.5-620z"/>
		</g>
	</g>
</g>
<g>
	<circle class="st2" cx="147.4" cy="-516.1" r="9.9"/>
	<path class="st0" d="M147.4-503.2c-3,0-5.9-1-8.2-3c-2.7-2.2-4.3-5.3-4.6-8.7c-0.7-7.1,4.6-13.4,11.6-14.1
		c7.1-0.7,13.4,4.6,14.1,11.6c0.3,3.4-0.7,6.8-2.9,9.5c-2.2,2.7-5.3,4.3-8.7,4.6C148.2-503.2,147.8-503.2,147.4-503.2z M147.4-523
		c-0.2,0-0.4,0-0.7,0c-3.8,0.4-6.6,3.7-6.2,7.5c0.2,1.8,1.1,3.5,2.5,4.7c1.4,1.2,3.2,1.7,5.1,1.6c1.8-0.2,3.5-1.1,4.7-2.5
		s1.7-3.2,1.6-5.1C154-520.3,151-523,147.4-523z"/>
</g>
<g>
	<g>
		<circle class="st3" cx="278" cy="-549.8" r="7.3"/>
	</g>
	<g>
		<path class="st0" d="M278-539.5c-2.4,0-4.7-0.8-6.5-2.4c-2.1-1.7-3.4-4.2-3.7-6.9l0,0c-0.5-5.6,3.6-10.7,9.3-11.2
			c5.6-0.5,10.7,3.6,11.2,9.3c0.5,5.6-3.6,10.7-9.3,11.2C278.6-539.5,278.3-539.5,278-539.5z M278-554c-0.1,0-0.3,0-0.4,0
			c-2.3,0.2-4.1,2.3-3.8,4.6l0,0c0.1,1.1,0.6,2.2,1.5,2.9c0.9,0.7,2,1.1,3.1,1c2.3-0.2,4.1-2.3,3.8-4.7C282-552.4,280.2-554,278-554
			z"/>
	</g>
</g>
<g>
	<circle class="st1" cx="211.6" cy="-619" r="14.4"/>
	<path class="st0" d="M211.6-601.6c-9.6,0-17.4-7.8-17.4-17.4s7.8-17.4,17.4-17.4c9.6,0,17.4,7.8,17.4,17.4S221.1-601.6,211.6-601.6
		z M211.6-630.4c-6.3,0-11.4,5.1-11.4,11.4s5.1,11.4,11.4,11.4c6.3,0,11.4-5.1,11.4-11.4S217.8-630.4,211.6-630.4z"/>
</g>
<g>
	<g>
		<polygon class="st0" points="170.2,-230.7 180,-213.8 189.9,-230.7 		"/>
		<path class="st0" d="M180-210.8C180-210.8,180-210.8,180-210.8c-1.1,0-2.1-0.6-2.6-1.5l-9.7-16.9c-0.5-0.9-0.5-2.1,0-3
			c0.5-0.9,1.5-1.5,2.6-1.5h19.6c1.1,0,2.1,0.6,2.6,1.5c0.5,0.9,0.5,2.1,0,3l-9.9,16.9C182-211.4,181-210.8,180-210.8z M175.4-227.7
			l4.6,7.9l4.6-7.9H175.4z"/>
	</g>
	<g>
		<polygon class="st0" points="347.4,-221.3 353.2,-231.2 352.7,-232.1 341.2,-232.1 		"/>
		<path class="st0" d="M347.4-218.3c-1.1,0-2.1-0.6-2.6-1.5l-6.3-10.8c-0.5-0.9-0.5-2.1,0-3c0.5-0.9,1.5-1.5,2.6-1.5h11.5
			c1.1,0,2.1,0.6,2.6,1.5l0.5,0.9c0.5,0.9,0.5,2.1,0,3l-5.7,9.9C349.5-218.9,348.5-218.3,347.4-218.3
			C347.4-218.3,347.4-218.3,347.4-218.3z M346.4-229.1l1.1,1.8l1-1.8H346.4z"/>
	</g>
	<g>
		<polygon class="st1" points="315.1,-232.1 308.3,-213.1 300.2,-253.9 289.8,-191.3 282.1,-298.2 252.2,-230.7 230.2,-230.7 
			262.6,-173.3 319.7,-173.3 347.4,-221.3 341.2,-232.1 		"/>
		<path class="st0" d="M319.7-170.3h-57.2c-1.1,0-2.1-0.6-2.6-1.5l-32.4-57.3c-0.5-0.9-0.5-2.1,0-3c0.5-0.9,1.5-1.5,2.6-1.5h20.1
			l29.1-65.8c0.6-1.3,1.9-2,3.3-1.7c1.4,0.2,2.4,1.4,2.5,2.7l5.9,81.8l6.3-37.7c0.2-1.4,1.5-2.5,2.9-2.5c1.4,0,2.7,1,3,2.4l6,30.1
			l3.2-8.8c0.4-1.2,1.6-2,2.8-2h26c1.1,0,2.1,0.6,2.6,1.5l6.3,10.8c0.5,0.9,0.5,2.1,0,3l-27.7,48
			C321.8-170.9,320.8-170.3,319.7-170.3z M264.3-176.3H318l26-45l-4.5-7.8h-22.2l-6.1,17c-0.5,1.3-1.7,2.1-3,2
			c-1.3-0.1-2.5-1.1-2.7-2.4l-4.9-24.7l-7.7,46.4c-0.2,1.5-1.6,2.6-3.1,2.5c-1.5-0.1-2.7-1.3-2.9-2.8l-6.8-94.9l-25,56.5
			c-0.5,1.1-1.6,1.8-2.7,1.8h-16.9L264.3-176.3z"/>
	</g>
	<g>
		<polygon class="st1" points="230.2,-230.7 189.9,-230.7 180,-213.8 203.3,-173.3 262.6,-173.3 		"/>
		<path class="st0" d="M262.6-170.3h-59.2c-1.1,0-2.1-0.6-2.6-1.5l-23.4-40.5c-0.5-0.9-0.5-2.1,0-3l9.9-16.9
			c0.5-0.9,1.5-1.5,2.6-1.5h40.3c1.1,0,2.1,0.6,2.6,1.5l32.4,57.3c0.5,0.9,0.5,2.1,0,3C264.6-170.9,263.6-170.3,262.6-170.3z
			 M205.1-176.3h52.3l-29-51.3h-36.9l-8.1,13.9L205.1-176.3z"/>
	</g>
	<g>
		<polygon class="st1" points="319.7,-173.3 262.6,-173.3 274.7,-151.9 307.4,-151.9 		"/>
		<path class="st0" d="M307.4-148.9h-32.7c-1.1,0-2.1-0.6-2.6-1.5l-12.1-21.5c-0.5-0.9-0.5-2.1,0-3c0.5-0.9,1.5-1.5,2.6-1.5h57.2
			c1.1,0,2.1,0.6,2.6,1.5c0.5,0.9,0.5,2.1,0,3L310-150.4C309.4-149.5,308.4-148.9,307.4-148.9z M276.4-154.9h29.2l8.9-15.5h-46.9
			L276.4-154.9z"/>
	</g>
	<g>
		<polygon class="st2" points="203.3,-173.3 215.7,-151.9 274.7,-151.9 262.6,-173.3 		"/>
		<path class="st0" d="M279.8-148.9H214l-15.9-27.5h66.2L279.8-148.9z M217.5-154.9h52.1l-8.7-15.5h-52.3L217.5-154.9z"/>
	</g>
	<g>
		<polygon class="st2" points="352.7,-232.1 307.4,-310.6 295.5,-310.6 341.2,-232.1 		"/>
		<path class="st0" d="M357.9-229.1h-18.4l-49.1-84.5h18.8L357.9-229.1z M342.9-235.1h4.6l-41.8-72.5h-4.9L342.9-235.1z"/>
	</g>
	<g>
		<g>
			<polygon class="st3" points="189.9,-230.7 230.2,-230.7 210.4,-265.7 			"/>
		</g>
		<g>
			<path class="st0" d="M230.2-227.7h-40.3c-1.1,0-2.1-0.6-2.6-1.5c-0.5-0.9-0.5-2.1,0-3l20.6-35c0.5-0.9,1.6-1.5,2.6-1.5
				c1.1,0,2.1,0.6,2.6,1.5l19.8,35c0.5,0.9,0.5,2.1,0,3C232.2-228.3,231.3-227.7,230.2-227.7z M195.1-233.7h29.9l-14.7-26
				L195.1-233.7z"/>
		</g>
	</g>
	<g>
		<polygon class="st2" points="210.4,-265.7 200.2,-283.7 169.9,-231.2 170.2,-230.7 189.9,-230.7 		"/>
		<path class="st0" d="M191.6-227.7h-23.1l-2-3.5l33.8-58.6l13.6,24.1L191.6-227.7z M174.8-233.7h13.3l18.8-32l-6.8-12L174.8-233.7z
			"/>
	</g>
	<g>
		<g>
			<polygon class="st3" points="236.8,-310.6 215.7,-310.6 200.2,-283.7 210.4,-265.7 			"/>
		</g>
		<g>
			<path class="st0" d="M210.4-262.7C210.4-262.7,210.4-262.7,210.4-262.7c-1.1,0-2.1-0.6-2.6-1.5l-10.2-18c-0.5-0.9-0.5-2.1,0-3
				l15.5-26.8c0.5-0.9,1.5-1.5,2.6-1.5h21.1c1.1,0,2.1,0.6,2.6,1.5c0.5,0.9,0.5,2.1,0,3L213-264.2
				C212.5-263.3,211.5-262.7,210.4-262.7z M203.7-283.7l6.8,12l21.1-35.9h-14.1L203.7-283.7z"/>
		</g>
	</g>
	<g>
		<g>
			<polygon class="st3" points="230.2,-230.7 252.2,-230.7 282.1,-298.2 289.8,-191.3 300.2,-253.9 308.3,-213.1 315.1,-232.1 
				341.2,-232.1 295.5,-310.6 236.8,-310.6 210.4,-265.7 			"/>
		</g>
		<g>
			<path class="st0" d="M289.8-188.3c0,0-0.1,0-0.1,0c-1.5-0.1-2.7-1.3-2.9-2.8l-6.8-94.9l-25,56.5c-0.5,1.1-1.6,1.8-2.7,1.8h-22
				c-1.1,0-2.1-0.6-2.6-1.5l-19.8-35c-0.5-0.9-0.5-2.1,0-3l26.4-44.9c0.5-0.9,1.5-1.5,2.6-1.5h58.7c1.1,0,2.1,0.6,2.6,1.5l45.6,78.5
				c0.5,0.9,0.5,2.1,0,3c-0.5,0.9-1.5,1.5-2.6,1.5h-23.9l-6.1,17c-0.5,1.3-1.7,2.1-3,2c-1.3-0.1-2.5-1.1-2.7-2.4l-4.9-24.7
				l-7.7,46.4C292.5-189.4,291.2-188.3,289.8-188.3z M282.1-301.2c0.2,0,0.3,0,0.5,0c1.4,0.2,2.4,1.4,2.5,2.7l5.9,81.8l6.3-37.7
				c0.2-1.4,1.5-2.5,2.9-2.5c1.4,0,2.7,1,3,2.4l6,30.1l3.2-8.8c0.4-1.2,1.6-2,2.8-2h20.8l-42.1-72.5h-55.3l-24.6,41.9l18,32h18.3
				l29.1-65.8C279.8-300.6,280.9-301.2,282.1-301.2z"/>
		</g>
	</g>
</g>
<g>
	<g>
		<polygon class="st0" points="550.1,-251.5 555,-243.1 559.9,-251.5 		"/>
		<path class="st0" d="M555-241.6C555-241.6,555-241.6,555-241.6c-0.5,0-1-0.3-1.3-0.7l-4.9-8.4c-0.3-0.5-0.3-1,0-1.5
			c0.3-0.5,0.8-0.7,1.3-0.7h9.8c0.5,0,1,0.3,1.3,0.8c0.3,0.5,0.3,1,0,1.5l-4.9,8.4C556-241.9,555.5-241.6,555-241.6z M552.7-250
			l2.3,3.9l2.3-3.9H552.7z"/>
	</g>
	<g>
		<polygon class="st0" points="638.5,-246.8 641.3,-251.8 641.1,-252.2 635.3,-252.2 		"/>
		<path class="st0" d="M638.5-245.3c-0.5,0-1-0.3-1.3-0.7l-3.1-5.4c-0.3-0.5-0.3-1,0-1.5c0.3-0.5,0.8-0.7,1.3-0.7h5.7
			c0.5,0,1,0.3,1.3,0.7l0.3,0.4c0.3,0.5,0.3,1,0,1.5l-2.9,4.9C639.5-245.6,639-245.3,638.5-245.3
			C638.5-245.3,638.5-245.3,638.5-245.3z M637.9-250.7l0.5,0.9l0.5-0.9H637.9z"/>
	</g>
	<g>
		<polygon class="st1" points="622.4,-252.2 619,-242.7 614.9,-263.1 609.7,-231.9 605.9,-285.2 591,-251.5 580,-251.5 
			596.1,-222.9 624.7,-222.9 638.5,-246.8 635.3,-252.2 		"/>
		<path class="st0" d="M624.7-221.4h-28.5c-0.5,0-1-0.3-1.3-0.8l-16.1-28.6c-0.3-0.5-0.3-1,0-1.5c0.3-0.5,0.8-0.7,1.3-0.7h10
			l14.5-32.8c0.3-0.6,0.9-1,1.6-0.9c0.7,0.1,1.2,0.7,1.2,1.4l2.9,40.8l3.1-18.8c0.1-0.7,0.7-1.2,1.5-1.2c0.7,0,1.3,0.5,1.5,1.2l3,15
			l1.6-4.4c0.2-0.6,0.8-1,1.4-1h13c0.5,0,1,0.3,1.3,0.7l3.1,5.4c0.3,0.5,0.3,1,0,1.5L626-222.2C625.7-221.7,625.2-221.4,624.7-221.4
			z M597-224.4h26.8l12.9-22.4l-2.3-3.9h-11.1l-3,8.5c-0.2,0.6-0.8,1-1.5,1c-0.7,0-1.2-0.5-1.4-1.2l-2.5-12.3l-3.9,23.1
			c-0.1,0.7-0.8,1.3-1.5,1.2c-0.8,0-1.4-0.6-1.4-1.4l-3.4-47.3l-12.5,28.2c-0.2,0.5-0.8,0.9-1.4,0.9h-8.4L597-224.4z"/>
	</g>
	<g>
		<polygon class="st1" points="580,-251.5 559.9,-251.5 555,-243.1 566.6,-222.9 596.1,-222.9 		"/>
		<path class="st0" d="M596.1-221.4h-29.5c-0.5,0-1-0.3-1.3-0.7l-11.7-20.2c-0.3-0.5-0.3-1,0-1.5l4.9-8.4c0.3-0.5,0.8-0.7,1.3-0.7
			H580c0.5,0,1,0.3,1.3,0.8l16.1,28.6c0.3,0.5,0.3,1,0,1.5C597.2-221.7,596.7-221.4,596.1-221.4z M567.5-224.4h26.1L579.1-250h-18.4
			l-4.1,6.9L567.5-224.4z"/>
	</g>
	<g>
		<polygon class="st1" points="624.7,-222.9 596.1,-222.9 602.2,-212.2 618.5,-212.2 		"/>
		<path class="st0" d="M618.5-210.7h-16.3c-0.5,0-1-0.3-1.3-0.8l-6-10.7c-0.3-0.5-0.3-1,0-1.5c0.3-0.5,0.8-0.7,1.3-0.7h28.5
			c0.5,0,1,0.3,1.3,0.7c0.3,0.5,0.3,1,0,1.5l-6.2,10.7C619.5-211,619-210.7,618.5-210.7z M603.1-213.7h14.6l4.5-7.7h-23.4
			L603.1-213.7z"/>
	</g>
	<g>
		<polygon class="st2" points="566.6,-222.9 572.8,-212.2 602.2,-212.2 596.1,-222.9 		"/>
		<path class="st0" d="M604.7-210.7h-32.8l-7.9-13.7h33L604.7-210.7z M573.7-213.7h26l-4.4-7.7h-26.1L573.7-213.7z"/>
	</g>
	<g>
		<polygon class="st2" points="641.1,-252.2 618.5,-291.3 612.6,-291.3 635.3,-252.2 		"/>
		<path class="st0" d="M643.7-250.7h-9.2L610-292.8h9.4L643.7-250.7z M636.2-253.7h2.3l-20.9-36.1h-2.4L636.2-253.7z"/>
	</g>
	<g>
		<g>
			<polygon class="st3" points="559.9,-251.5 580,-251.5 570.2,-269 			"/>
		</g>
		<g>
			<path class="st0" d="M580-250h-20.1c-0.5,0-1-0.3-1.3-0.8c-0.3-0.5-0.3-1,0-1.5l10.3-17.5c0.3-0.5,0.8-0.7,1.3-0.7
				c0.5,0,1,0.3,1.3,0.8l9.9,17.5c0.3,0.5,0.3,1,0,1.5C581-250.3,580.5-250,580-250z M562.5-253h14.9l-7.3-13L562.5-253z"/>
		</g>
	</g>
	<g>
		<polygon class="st2" points="570.2,-269 565.1,-278 550,-251.8 550.1,-251.5 559.9,-251.5 		"/>
		<path class="st0" d="M560.8-250h-11.5l-1-1.8l16.9-29.2l6.8,12L560.8-250z M552.4-253h6.7l9.4-16l-3.4-6L552.4-253z"/>
	</g>
	<g>
		<g>
			<polygon class="st3" points="583.3,-291.3 572.8,-291.3 565.1,-278 570.2,-269 			"/>
		</g>
		<g>
			<path class="st0" d="M570.2-267.5C570.1-267.5,570.1-267.5,570.2-267.5c-0.5,0-1-0.3-1.3-0.8l-5.1-9c-0.3-0.5-0.3-1,0-1.5
				l7.7-13.4c0.3-0.5,0.8-0.7,1.3-0.7h10.5c0.5,0,1,0.3,1.3,0.8c0.3,0.5,0.3,1,0,1.5l-13.1,22.4
				C571.2-267.7,570.7-267.5,570.2-267.5z M566.8-278l3.4,6l10.5-17.9h-7L566.8-278z"/>
		</g>
	</g>
	<g>
		<g>
			<polygon class="st3" points="580,-251.5 591,-251.5 605.9,-285.2 609.7,-231.9 614.9,-263.1 619,-242.7 622.4,-252.2 
				635.3,-252.2 612.6,-291.3 583.3,-291.3 570.2,-269 			"/>
		</g>
		<g>
			<path class="st0" d="M609.7-230.4C609.7-230.4,609.7-230.4,609.7-230.4c-0.8,0-1.4-0.6-1.5-1.4l-3.4-47.3l-12.5,28.2
				c-0.2,0.5-0.8,0.9-1.4,0.9h-11c-0.5,0-1-0.3-1.3-0.8l-9.9-17.5c-0.3-0.5-0.3-1,0-1.5l13.1-22.4c0.3-0.5,0.8-0.7,1.3-0.7h29.3
				c0.5,0,1,0.3,1.3,0.7l22.8,39.1c0.3,0.5,0.3,1,0,1.5c-0.3,0.5-0.8,0.7-1.3,0.7h-11.9l-3,8.5c-0.2,0.6-0.8,1-1.5,1
				c-0.7,0-1.2-0.5-1.4-1.2l-2.5-12.3l-3.9,23.1C611.1-230.9,610.4-230.4,609.7-230.4z M605.9-286.7c0.1,0,0.2,0,0.3,0
				c0.7,0.1,1.2,0.7,1.2,1.4l2.9,40.8l3.1-18.8c0.1-0.7,0.7-1.2,1.5-1.2c0.7,0,1.3,0.5,1.5,1.2l3,15l1.6-4.4c0.2-0.6,0.8-1,1.4-1
				h10.4l-21-36.1h-27.6l-12.3,20.9l9,15.9h9.1l14.5-32.8C604.8-286.3,605.3-286.7,605.9-286.7z"/>
		</g>
	</g>
</g>
<g>
	<g>
		<g>
			<path class="st0" d="M64.8,26.3c-0.7,5.3-2.4,7-6.2,7c-3.8,0-5.3-1.8-4.5-7.1c0.7-5.1,2.3-7,6.3-7C64.1,19.2,65.6,21.1,64.8,26.3
				z M55.9,26.3c-0.6,4.1,0.1,5.5,2.7,5.5c2.7,0,3.8-1.3,4.4-5.6c0.6-4.3-0.1-5.5-2.7-5.5C57.5,20.7,56.5,22.1,55.9,26.3z"/>
		</g>
		<g>
			<path class="st0" d="M68.7,19.4c1.5-0.2,2.6-0.2,4.6-0.2c2.8,0,4.4,0.9,4,4c-0.3,2.1-1.1,3.2-3,3.4l0,0.1c0.8,0.2,1.2,0.9,1.4,2
				l0.9,4.3h-1.8l-0.8-4.3c-0.2-1-0.7-1.4-1.5-1.4l-3.1,0l-0.8,5.7h-1.7L68.7,19.4z M72.4,25.9c2,0,2.8-0.6,3.1-2.7
				c0.3-1.9-0.3-2.5-2.2-2.5c-1.2,0-2.3,0-3.1,0l-0.7,5.1H72.4z"/>
		</g>
		<g>
			<path class="st0" d="M85.2,21l-1.7,12.1h-1.7L83.5,21h-4.4l0.2-1.5h10.5L89.6,21H85.2z"/>
		</g>
		<g>
			<path class="st0" d="M101,26.3c-0.7,5.3-2.4,7-6.2,7c-3.8,0-5.3-1.8-4.5-7.1c0.7-5.1,2.3-7,6.3-7C100.3,19.2,101.8,21.1,101,26.3
				z M92.1,26.3c-0.6,4.1,0.1,5.5,2.7,5.5c2.7,0,3.8-1.3,4.4-5.6c0.6-4.3-0.1-5.5-2.7-5.5C93.7,20.7,92.7,22.1,92.1,26.3z"/>
		</g>
		<g>
			<path class="st0" d="M105.9,26.9c-2.1-0.9-2.6-2.2-2.3-4c0.4-3.1,2.1-3.7,5.3-3.7c1.4,0,3,0.1,4.4,0.6l-0.3,2
				c-1.2,0-2.8-0.1-4.2-0.1c-1.4,0-2,0-2.2,1.3c-0.1,0.9,0.1,1.1,1.1,1.5l2.5,0.9c2.2,0.9,2.6,2,2.4,4.1c-0.4,3.1-1.8,3.8-5.4,3.8
				c-0.9,0-2.7-0.1-4.7-0.5l0.3-2.2c2.5,0.1,3.7,0.1,4.3,0.1c1.8,0,2.3-0.2,2.5-1.4c0.1-0.9-0.1-1.1-1-1.4L105.9,26.9z"/>
		</g>
		<g>
			<path class="st0" d="M124.8,33.1h-3l0.9-6.1H118l-0.9,6.1h-3l1.9-13.6h3l-0.7,5.2h4.7l0.7-5.2h3L124.8,33.1z"/>
		</g>
		<g>
			<path class="st0" d="M139.7,26.4c-0.7,5.4-2.5,7-6.6,7c-4.2,0-5.8-1.7-5-7.2c0.7-5.3,2.4-7,6.6-7
				C138.8,19.2,140.5,20.9,139.7,26.4z M131.3,26.4c-0.5,3.6-0.1,4.5,1.9,4.5c2.1,0,2.8-1,3.4-4.8c0.5-3.7,0.1-4.5-2-4.5
				C132.5,21.6,131.8,22.6,131.3,26.4z"/>
		</g>
		<g>
			<path class="st0" d="M150.8,32.8c-1.3,0.4-2.5,0.5-4.3,0.5c-4.2,0-5.6-2.1-4.9-7.2c0.8-5.3,2.4-6.9,6.6-6.9
				c1.9,0,2.9,0.2,4.1,0.5l-0.4,2.2c-1.3-0.1-2.1-0.1-3.8-0.1c-2,0-2.8,0.7-3.3,4.6c-0.5,3.4-0.1,4.3,1.9,4.3c1.9,0,2.9,0,4.1-0.2
				L150.8,32.8z"/>
		</g>
		<g>
			<path class="st0" d="M159.8,26.2c0.3,0.3,0.7,0.8,0.9,1.2l2.8,5.7h-3.3l-2.8-6h-1.1c0,0.5,0,0.9,0,1.4l-0.7,4.6h-3l1.9-13.6h3
				l-0.6,4c-0.1,0.5-0.2,1-0.3,1.5h1.1l4.1-5.5h3.5l-4.3,5.6C160.7,25.6,160.3,25.9,159.8,26.2L159.8,26.2z"/>
		</g>
	</g>
	<g>
		<g>
			<polygon class="st0" points="4.4,26.1 6.8,30.3 9.2,26.1 			"/>
			<path class="st0" d="M6.8,31C6.8,31,6.8,31,6.8,31c-0.3,0-0.5-0.1-0.6-0.4l-2.4-4.2c-0.1-0.2-0.1-0.5,0-0.7
				c0.1-0.2,0.4-0.4,0.6-0.4h4.8c0.3,0,0.5,0.1,0.6,0.4c0.1,0.2,0.1,0.5,0,0.7l-2.4,4.2C7.3,30.9,7.1,31,6.8,31z M5.7,26.9l1.1,1.9
				L8,26.9H5.7z"/>
		</g>
		<g>
			<polygon class="st0" points="48.1,28.4 49.5,26 49.4,25.8 46.6,25.8 			"/>
			<path class="st0" d="M48.1,29.2c-0.3,0-0.5-0.1-0.6-0.4l-1.5-2.7c-0.1-0.2-0.1-0.5,0-0.7c0.1-0.2,0.4-0.4,0.6-0.4h2.8
				c0.3,0,0.5,0.1,0.6,0.4l0.1,0.2c0.1,0.2,0.1,0.5,0,0.7l-1.4,2.4C48.6,29,48.4,29.2,48.1,29.2C48.1,29.2,48.1,29.2,48.1,29.2z
				 M47.9,26.5l0.3,0.4l0.3-0.4H47.9z"/>
		</g>
		<g>
			<polygon class="st1" points="40.2,25.8 38.5,30.5 36.5,20.4 33.9,35.8 32,9.5 24.6,26.1 19.2,26.1 27.2,40.3 41.3,40.3 
				48.1,28.4 46.6,25.8 			"/>
			<path class="st0" d="M41.3,41H27.2c-0.3,0-0.5-0.1-0.6-0.4l-8-14.2c-0.1-0.2-0.1-0.5,0-0.7c0.1-0.2,0.4-0.4,0.6-0.4h5l7.2-16.2
				c0.1-0.3,0.5-0.5,0.8-0.4c0.3,0.1,0.6,0.3,0.6,0.7l1.5,20.2l1.5-9.3c0.1-0.4,0.4-0.6,0.7-0.6c0.4,0,0.7,0.2,0.7,0.6l1.5,7.4
				l0.8-2.2c0.1-0.3,0.4-0.5,0.7-0.5h6.4c0.3,0,0.5,0.1,0.6,0.4l1.5,2.7c0.1,0.2,0.1,0.5,0,0.7l-6.8,11.8C41.8,40.9,41.6,41,41.3,41
				z M27.6,39.5h13.3l6.4-11.1l-1.1-1.9h-5.5l-1.5,4.2c-0.1,0.3-0.4,0.5-0.8,0.5c-0.3,0-0.6-0.3-0.7-0.6l-1.2-6.1L34.6,36
				c-0.1,0.4-0.4,0.6-0.8,0.6c-0.4,0-0.7-0.3-0.7-0.7l-1.7-23.4l-6.2,14c-0.1,0.3-0.4,0.4-0.7,0.4h-4.2L27.6,39.5z"/>
		</g>
		<g>
			<polygon class="st1" points="19.2,26.1 9.2,26.1 6.8,30.3 12.6,40.3 27.2,40.3 			"/>
			<path class="st0" d="M27.2,41H12.6c-0.3,0-0.5-0.1-0.6-0.4l-5.8-10c-0.1-0.2-0.1-0.5,0-0.7l2.4-4.2c0.1-0.2,0.4-0.4,0.6-0.4h10
				c0.3,0,0.5,0.1,0.6,0.4l8,14.2c0.1,0.2,0.1,0.5,0,0.7C27.7,40.9,27.4,41,27.2,41z M13,39.5h12.9l-7.2-12.7H9.7l-2,3.4L13,39.5z"
				/>
		</g>
		<g>
			<polygon class="st1" points="41.3,40.3 27.2,40.3 30.2,45.6 38.2,45.6 			"/>
			<path class="st0" d="M38.2,46.3h-8.1c-0.3,0-0.5-0.1-0.6-0.4l-3-5.3c-0.1-0.2-0.1-0.5,0-0.7c0.1-0.2,0.4-0.4,0.6-0.4h14.1
				c0.3,0,0.5,0.1,0.6,0.4c0.1,0.2,0.1,0.5,0,0.7L38.9,46C38.8,46.2,38.5,46.3,38.2,46.3z M30.6,44.8h7.2L40,41H28.5L30.6,44.8z"/>
		</g>
		<g>
			<polygon class="st2" points="12.6,40.3 15.6,45.6 30.2,45.6 27.2,40.3 			"/>
			<path class="st0" d="M31.4,46.3H15.2l-3.9-6.8h16.3L31.4,46.3z M16.1,44.8h12.8L26.8,41H13.9L16.1,44.8z"/>
		</g>
		<g>
			<polygon class="st2" points="49.4,25.8 38.2,6.4 35.3,6.4 46.6,25.8 			"/>
			<path class="st0" d="M50.7,26.5h-4.5L34,5.7h4.6L50.7,26.5z M47,25h1.1L37.8,7.2h-1.2L47,25z"/>
		</g>
		<g>
			<g>
				<polygon class="st3" points="9.2,26.1 19.2,26.1 14.3,17.5 				"/>
			</g>
			<g>
				<path class="st0" d="M19.2,26.9h-10c-0.3,0-0.5-0.1-0.6-0.4c-0.1-0.2-0.1-0.5,0-0.7l5.1-8.6c0.1-0.2,0.4-0.4,0.6-0.4
					c0.3,0,0.5,0.1,0.6,0.4l4.9,8.6c0.1,0.2,0.1,0.5,0,0.7C19.7,26.7,19.5,26.9,19.2,26.9z M10.5,25.4h7.4L14.3,19L10.5,25.4z"/>
			</g>
		</g>
		<g>
			<polygon class="st2" points="14.3,17.5 11.8,13 4.3,26 4.4,26.1 9.2,26.1 			"/>
			<path class="st0" d="M9.7,26.9H4L3.5,26l8.3-14.5l3.4,6L9.7,26.9z M5.5,25.4h3.3l4.6-7.9l-1.7-3L5.5,25.4z"/>
		</g>
		<g>
			<g>
				<polygon class="st3" points="20.8,6.4 15.6,6.4 11.8,13 14.3,17.5 				"/>
			</g>
			<g>
				<path class="st0" d="M14.3,18.2C14.3,18.2,14.3,18.2,14.3,18.2c-0.3,0-0.5-0.1-0.6-0.4l-2.5-4.5c-0.1-0.2-0.1-0.5,0-0.7L15,6
					c0.1-0.2,0.4-0.4,0.6-0.4h5.2c0.3,0,0.5,0.1,0.6,0.4c0.1,0.2,0.1,0.5,0,0.7L15,17.9C14.8,18.1,14.6,18.2,14.3,18.2z M12.7,13
					l1.7,3l5.2-8.9h-3.5L12.7,13z"/>
			</g>
		</g>
		<g>
			<g>
				<polygon class="st3" points="19.2,26.1 24.6,26.1 32,9.5 33.9,35.8 36.5,20.4 38.5,30.5 40.2,25.8 46.6,25.8 35.3,6.4 20.8,6.4 
					14.3,17.5 				"/>
			</g>
			<g>
				<path class="st0" d="M33.9,36.6C33.9,36.6,33.9,36.6,33.9,36.6c-0.4,0-0.7-0.3-0.7-0.7l-1.7-23.4l-6.2,14
					c-0.1,0.3-0.4,0.4-0.7,0.4h-5.4c-0.3,0-0.5-0.1-0.6-0.4l-4.9-8.6c-0.1-0.2-0.1-0.5,0-0.7L20.2,6c0.1-0.2,0.4-0.4,0.6-0.4h14.5
					c0.3,0,0.5,0.1,0.6,0.4l11.3,19.4c0.1,0.2,0.1,0.5,0,0.7c-0.1,0.2-0.4,0.4-0.6,0.4h-5.9l-1.5,4.2c-0.1,0.3-0.4,0.5-0.8,0.5
					c-0.3,0-0.6-0.3-0.7-0.6l-1.2-6.1L34.6,36C34.6,36.3,34.3,36.6,33.9,36.6z M32,8.7c0,0,0.1,0,0.1,0c0.3,0.1,0.6,0.3,0.6,0.7
					l1.5,20.2l1.5-9.3c0.1-0.4,0.4-0.6,0.7-0.6c0.4,0,0.7,0.2,0.7,0.6l1.5,7.4l0.8-2.2c0.1-0.3,0.4-0.5,0.7-0.5h5.1L34.9,7.2H21.3
					l-6.1,10.3l4.5,7.9h4.5l7.2-16.2C31.4,8.9,31.7,8.7,32,8.7z"/>
			</g>
		</g>
	</g>
</g>
</svg>
