<?xml version="1.0" encoding="utf-8"?>
<!-- Generator: Adobe Illustrator 21.1.0, SVG Export Plug-In . SVG Version: 6.00 Build 0)  -->
<svg version="1.1" id="Layer_1" xmlns="http://www.w3.org/2000/svg" xmlns:xlink="http://www.w3.org/1999/xlink" x="0px" y="0px"
	 viewBox="0 0 509 444.3" style="enable-background:new 0 0 509 444.3;" xml:space="preserve">
<style type="text/css">
	.st0{fill:#009C80;}
	.st1{fill:#00644B;}
	.st2{fill:#038267;}
	.st3{fill:none;}
	.st4{fill:#50C0AA;}
	.st5{fill:#46B9A2;}
	.st6{fill:none;stroke:#447A6B;stroke-width:2;stroke-linecap:round;stroke-linejoin:round;stroke-miterlimit:10;}
	.st7{fill:none;stroke:#FFFFFF;stroke-width:5;stroke-linecap:round;stroke-linejoin:round;stroke-miterlimit:10;}
	.st8{fill:none;stroke:#FFFFFF;stroke-width:4;stroke-linecap:round;stroke-linejoin:round;stroke-miterlimit:10;}
</style>
<g>
	<path class="st0" d="M32.2,336.8c-12.5-5.3-15.8-11.4-14.4-23.5c2.7-19.3,14-20.7,30.3-20.4c8.3,0.1,16.6,0.6,24.4,1.8l-0.6,3.9
		c-10.8-0.6-16.1-0.9-25.6-0.9c-11.8,0-20.9,0.3-23.1,16.4c-1,9.2,0.9,13.6,10.5,17.7l18.8,7.7c13.4,5.5,16.6,11,14.9,23.9
		c-2.8,18.9-13.5,20.9-32.2,20.9c-4.9,0-14-0.1-25-1.7l0.8-4c10.8,0.8,17.5,1,25.7,0.9c15.5-0.3,23-2.1,25.4-16.8
		c1.4-10.5-0.9-14-11-18.2L32.2,336.8z"/>
	<path class="st0" d="M122.2,298.9l-11.8,84h-5.3l11.8-84H86.5l0.6-4.6h66.3l-0.6,4.6H122.2z"/>
	<path class="st0" d="M169.1,294.3c9.2-0.9,15.7-1,28.6-1c18.8,0,25.9,5.5,23.2,25.4c-2.2,15.3-8,21.4-19.8,23v0.6
		c4.5,1.4,7.3,6.2,8.5,12.5l5.8,28.1h-5.5l-5.7-28.1c-1.5-8.1-5.5-10.9-11.9-10.9c-11.8-0.3-19.9-0.3-24.9-0.5l-5.7,39.6h-5.1
		L169.1,294.3z M191.4,339.1c15.5-0.3,21.8-4.6,24.1-20.9c2.2-16.1-2.4-20.3-17.9-20.3c-10.4,0-19,0.1-24,0.3l-5.8,41H191.4z"/>
	<path class="st0" d="M234.8,382.9l12.5-88.6h5.3l-12.5,88.6H234.8z"/>
	<path class="st1" d="M337.2,339.1c-4.6,34.4-15.4,45.5-40.7,45.5c-24.4,0-34.7-11.6-29.9-46.5c4.5-33.3,14.8-45.5,41.2-45.5
		C332.3,292.6,342.1,304.7,337.2,339.1z M279.9,339.1c-3.6,25.8,0.1,34,16.8,34s23.2-8.3,27.1-35.1s-0.3-34-16.7-34
		C289.9,304.1,283.8,312,279.9,339.1z"/>
	<path class="st1" d="M361.6,294.3c9.8-1,17.5-1.2,30.4-1.2c18.2,0,28.9,5.9,26.2,26.2c-1.8,13-7.2,20.5-19.8,22.1l-0.1,0.8
		c5,1.4,8.2,5.3,9.6,13l5.7,27.7h-13.1l-5.3-27.9c-1.2-6.4-4-8.6-9.5-8.6l-18.9-0.1l-5.1,36.6h-12.6L361.6,294.3z M386.1,335.4
		c12.3-0.1,17.3-3.9,19.1-16.3c1.7-11.4-1.5-14.9-13.6-14.9c-7.4,0-13.9,0-18.9,0.1l-4.4,31.1H386.1z"/>
	<path class="st1" d="M470.6,305.7l-10.9,77.2h-12.8l10.9-77.2h-28l1.7-11.4h68.8l-1.5,11.4H470.6z"/>
</g>
<g>
	<path class="st2" d="M122.4,411.8c-1.5,11.3-4.9,15.1-13,15.1c-8.1,0-10.7-4-9.1-15.3c1.6-11.2,4.9-15.1,13.1-15.1
		C121.5,396.5,124,400.5,122.4,411.8z M102.1,411.8c-1.4,10.1,0.5,13.6,7.3,13.6c7,0,9.8-3.5,11.2-13.7c1.4-10.2-0.3-13.6-7.2-13.6
		C106.3,398.1,103.5,401.6,102.1,411.8z"/>
	<path class="st2" d="M146.3,398.5c-2.2,0-3.5,1.1-3.9,3.4l-1.2,8.4h13.3l-0.2,1.4h-13.3l-2.1,14.8h-1.7l3.5-24.9
		c0.4-2.8,2.4-4.5,5.2-4.5c4.2,0,8.3,0,12.3,0.2l-0.3,1.3H146.3z"/>
	<path class="st2" d="M160,426.4l4.1-29.4h1.7l-4.1,29.4H160z"/>
	<path class="st2" d="M201,397c0.6,0,0.9,0.4,0.8,0.9l-2.7,28.5h-1.8l2.7-27.9h-1l-12.3,24.6c-0.2,0.4-0.4,0.6-0.9,0.6h-2.2
		c-0.4,0-0.7-0.3-0.8-0.6l-5.4-24.5h-1l-5.1,27.9h-1.7l5.3-28.6c0.1-0.5,0.4-0.8,0.9-0.8h2.3c0.4,0,0.7,0.3,0.8,0.7l4.6,20.6
		c0.3,1.3,0.6,2.7,0.9,4h1.1l2-4.1l10.3-20.6c0.2-0.4,0.5-0.6,0.9-0.6H201z"/>
	<path class="st2" d="M220.7,397c2.9-0.2,6.3-0.4,9.7-0.4c8.2,0,10.6,4,9,15.2c-1.6,11.6-5,15-13.1,15c-3.5,0-6.9-0.2-9.8-0.4
		L220.7,397z M218.5,425.1c2.4,0.1,5,0.1,7.8,0.1c7,0,9.9-3.1,11.4-13.6c1.4-10.2-0.4-13.4-7.3-13.4c-2.9,0-5.7,0-8.1,0.1
		L218.5,425.1z"/>
	<path class="st2" d="M247.9,416.1l-5.1,10.3h-1.9l14.4-28.9c0.1-0.4,0.4-0.5,0.8-0.5h2.4c0.3,0,0.7,0.3,0.7,0.6l6.2,28.8h-1.8
		l-2.1-10.3H247.9z M258.3,400.8c-0.2-0.9-0.3-1.6-0.5-2.4h-1.3c-0.4,0.8-0.8,1.6-1.2,2.4l-6.7,13.6h12.5L258.3,400.8z"/>
	<path class="st2" d="M276.5,411.1c-4.1-1.7-5.2-3.8-4.8-7.8c0.9-6.4,4.6-6.9,10.1-6.8c2.8,0,5.5,0.2,8.1,0.6l-0.2,1.3
		c-3.6-0.2-5.3-0.3-8.5-0.3c-3.9,0-6.9,0.1-7.7,5.5c-0.3,3.1,0.3,4.5,3.5,5.9l6.2,2.6c4.4,1.8,5.5,3.7,4.9,7.9
		c-0.9,6.3-4.5,6.9-10.7,6.9c-1.6,0-4.6,0-8.3-0.6l0.3-1.3c3.6,0.3,5.8,0.3,8.5,0.3c5.2-0.1,7.6-0.7,8.4-5.6
		c0.5-3.5-0.3-4.6-3.7-6.1L276.5,411.1z"/>
	<path class="st2" d="M312.3,398.5c-2.3,0-3.5,1.3-3.8,3.4l-1.2,8.1H321l-0.2,1.4h-13.6l-1.4,10.2c-0.3,2,0.8,3.3,2.8,3.3h12.1v1.3
		c-4.1,0.2-8.3,0.2-12.4,0.2c-3,0-4.7-2-4.3-4.8l2.8-20.2c0.4-2.7,2.2-4.5,5.2-4.5c4.3,0,8.5,0,12.6,0.2l-0.3,1.3H312.3z"/>
	<path class="st2" d="M333.4,411.1c-4.1-1.7-5.2-3.8-4.8-7.8c0.9-6.4,4.6-6.9,10.1-6.8c2.8,0,5.5,0.2,8.1,0.6l-0.2,1.3
		c-3.6-0.2-5.3-0.3-8.5-0.3c-3.9,0-6.9,0.1-7.7,5.5c-0.3,3.1,0.3,4.5,3.5,5.9l6.2,2.6c4.4,1.8,5.5,3.7,4.9,7.9
		c-0.9,6.3-4.5,6.9-10.7,6.9c-1.6,0-4.6,0-8.3-0.6l0.3-1.3c3.6,0.3,5.8,0.3,8.5,0.3c5.2-0.1,7.6-0.7,8.4-5.6
		c0.5-3.5-0.3-4.6-3.7-6.1L333.4,411.1z"/>
	<path class="st2" d="M363.3,398.5l-3.9,27.9h-1.7l3.9-27.9h-10.1l0.2-1.5h22l-0.2,1.5H363.3z"/>
	<path class="st2" d="M378.8,397c3.1-0.3,5.2-0.3,9.5-0.3c6.2,0,8.6,1.8,7.7,8.4c-0.7,5.1-2.6,7.1-6.6,7.6v0.2
		c1.5,0.5,2.4,2,2.8,4.1l1.9,9.3h-1.8l-1.9-9.3c-0.5-2.7-1.8-3.6-4-3.6c-3.9-0.1-6.6-0.1-8.3-0.2l-1.9,13.1h-1.7L378.8,397z
		 M386.2,411.9c5.2-0.1,7.2-1.5,8-6.9c0.7-5.3-0.8-6.7-5.9-6.7c-3.5,0-6.3,0-8,0.1l-1.9,13.6H386.2z"/>
	<path class="st2" d="M400.6,426.4l4.1-29.4h1.7l-4.1,29.4H400.6z"/>
	<path class="st2" d="M414.3,416.1l-5.1,10.3h-1.9l14.4-28.9c0.1-0.4,0.4-0.5,0.8-0.5h2.4c0.3,0,0.7,0.3,0.7,0.6l6.2,28.8H430
		l-2.1-10.3H414.3z M424.7,400.8c-0.2-0.9-0.3-1.6-0.5-2.4h-1.3c-0.4,0.8-0.8,1.6-1.2,2.4l-6.7,13.6h12.5L424.7,400.8z"/>
	<path class="st2" d="M442.9,411.1c-4.1-1.7-5.2-3.8-4.8-7.8c0.9-6.4,4.6-6.9,10.1-6.8c2.8,0,5.5,0.2,8.1,0.6l-0.2,1.3
		c-3.6-0.2-5.3-0.3-8.5-0.3c-3.9,0-6.9,0.1-7.7,5.5c-0.3,3.1,0.3,4.5,3.5,5.9l6.2,2.6c4.4,1.8,5.5,3.7,4.9,7.9
		c-0.9,6.3-4.5,6.9-10.7,6.9c-1.6,0-4.6,0-8.3-0.6l0.3-1.3c3.6,0.3,5.8,0.3,8.5,0.3c5.2-0.1,7.6-0.7,8.4-5.6
		c0.5-3.5-0.3-4.6-3.7-6.1L442.9,411.1z"/>
</g>
<path class="st3" d="M196.4,261.2l10.4-4.6c-2.8-0.5-5.7-1.1-8.6-1.7L196.4,261.2z"/>
<path class="st3" d="M357.6,8.8l-9.7,9.9c3-0.4,6-0.8,9.1-1.1L357.6,8.8z"/>
<path class="st3" d="M253.6,270.8l10.9-11.9c-5.5,0.6-11.1,1-16.9,1.1L253.6,270.8z"/>
<path class="st3" d="M435.3,65.3l-30.1,2.6c-3.5,13.6-7.1,28.8-10.2,44.6L435.3,65.3z"/>
<polygon class="st2" points="242.5,79.2 229.9,139.3 289.2,79.2 "/>
<polygon class="st2" points="207,224.7 228.1,224.7 214.3,199.1 "/>
<polygon class="st2" points="199,170.8 214.3,199.1 229.9,139.3 "/>
<polygon class="st2" points="279,224.4 295.8,224.5 312.3,206.4 "/>
<polygon class="st4" points="295.8,224.5 345.4,224.5 346.8,185.1 312.3,206.4 "/>
<path class="st2" d="M206.8,256.6c14.3,2.5,28,3.6,40.8,3.3l-9.6-17.3L206.8,256.6z"/>
<path class="st0" d="M386.9,160.4l-40.1,24.7l-1.3,39.4l1.3,0C368,206.5,381.8,183.5,386.9,160.4z"/>
<polygon class="st2" points="238.1,242.7 279,224.4 228.1,224.7 "/>
<polygon class="st0" points="312.3,206.4 346.8,185.1 347.3,168.5 "/>
<path class="st5" d="M295.8,224.5l-31.3,34.4c33-3.7,60.3-16.2,80.9-33.2l0-1.1L295.8,224.5z"/>
<path class="st0" d="M279,224.4l-40.9,18.2l9.6,17.3c5.8-0.1,11.4-0.5,16.9-1.1l31.3-34.4L279,224.4z"/>
<path class="st6" d="M345.4,225.6c0.4-0.4,0.9-0.7,1.3-1.1l-1.3,0L345.4,225.6z"/>
<path class="st2" d="M187.3,149.2c-3.2,13.5-4.8,26.8-5.4,39.1l17.1-17.5L187.3,149.2z"/>
<path class="st1" d="M247.3,55.9c-9.8,7.2-18.2,15-25.4,23.4h20.5L247.3,55.9z"/>
<path class="st1" d="M214.3,199.1L199,170.8l-17.1,17.5c-0.7,13.7-0.2,26.2,0.8,36.4l24.3,0L214.3,199.1z"/>
<path class="st0" d="M229.9,139.3l12.5-60H222c-18.6,21.5-29.1,46.2-34.7,69.9l11.7,21.6L229.9,139.3z"/>
<path class="st5" d="M347.3,168.5l-0.6,16.7l40.1-24.7c0.6-2.8,1.1-5.7,1.5-8.5c1.6-13,3.9-26.4,6.5-39.4l-47.6,55.6L347.3,168.5z"
	/>
<path class="st2" d="M182.7,224.6c1.6,16.9,4.2,27.6,4.2,27.6c3.8,1,7.6,1.9,11.4,2.7l8.7-30.3L182.7,224.6z"/>
<path class="st1" d="M228.1,224.7l-21.2,0l-8.7,30.3c2.9,0.6,5.7,1.2,8.6,1.7l31.3-13.9L228.1,224.7z"/>
<path class="st0" d="M347.3,168.1l47.6-55.6c3.1-15.7,6.7-31,10.2-44.6l-51.2,4.3L347.3,168.1z"/>
<path class="st5" d="M405.1,67.9c7.7-30.2,14.8-52,14.8-52c-23.1-0.9-44-0.2-62.9,1.8l-3.2,54.6L405.1,67.9z"/>
<path class="st0" d="M353.9,72.2l3.2-54.6c-3.1,0.3-6.1,0.7-9.1,1.1l-58.8,60.5L353.9,72.2z"/>
<path class="st5" d="M289.2,79.2L348,18.8c-43.9,5.9-76.5,19.4-100.6,37.1l-4.9,23.4H289.2z"/>
<polygon class="st4" points="347.3,168.5 347.3,168.1 343.4,172.7 347.3,168.1 353.9,72.2 289.2,79.2 229.9,139.3 214.3,199.1 
	228.1,224.7 279,224.4 312.3,206.4 "/>
<g>
	<path class="st3" d="M88.8,92.7l-10.2,6.8l9.9,7.4C88.4,102.4,88.5,97.6,88.8,92.7z"/>
	<path class="st1" d="M172.3,175.5l9.8,8.7c0.4-6.3,1.1-12.8,2.1-19.4l-9.9-3.9L172.3,175.5z"/>
	<path class="st5" d="M181.5,118.3l10.8,13.5c2.4-7.2,5.4-14.3,8.9-21.3l-18-9L181.5,118.3z"/>
	<path class="st0" d="M174.4,160.8l9.9,3.9c1.7-10.8,4.2-21.9,8-33l-10.8-13.5L174.4,160.8z"/>
	<polygon class="st5" points="131.9,139.6 172.3,175.5 174.4,160.8 	"/>
	<polygon class="st2" points="103.6,55.4 103.6,82.9 124.8,68.7 	"/>
	<polygon class="st0" points="103.6,128.7 131.9,139.6 103.6,118.3 	"/>
	<path class="st5" d="M160.3,90l22.9,11.5l1.4-14c-15.5-13.4-31.6-22.2-45.9-28l-3.3,2.2L160.3,90z"/>
	<polygon class="st2" points="135.4,61.6 124.8,68.7 160.3,90 	"/>
	<polygon class="st1" points="183.2,101.4 160.3,90 181.5,118.3 	"/>
	<path class="st0" d="M201.2,110.4c0.7-1.3,1.3-2.7,2.1-4c-6-7.2-12.3-13.5-18.7-19.1l-1.4,14L201.2,110.4z"/>
	<path class="st1" d="M131.9,139.6l-28.3-10.9v15.9c27.6,2.3,54.2,14.1,66.5,46.8l2.3-15.8L131.9,139.6z"/>
	<path class="st1" d="M103.6,118.3L88.5,107c0,5.6,0.2,10.9,0.6,16.1l14.5,5.6V118.3z"/>
	<path class="st2" d="M89.1,123.1c0.5,7.4,1.4,14.4,2.5,21c4,0,8,0.1,12,0.4v-15.9L89.1,123.1z"/>
	<path class="st2" d="M233.5,259.7c-14.7-0.8-30.2-3.2-46.6-7.5c0,0-7.3-29.7-4.7-68l-9.8-8.7l-2.3,15.8c5.6,14.8,8.3,33.8,6.8,58.2
		C198.5,257.3,219.4,259.3,233.5,259.7z"/>
	<path class="st2" d="M103.6,49.7c-6.3-1-10-1.1-10-1.1c0,0.2-0.1,0.4-0.1,0.5l10.1,6.3V49.7z"/>
	<path class="st0" d="M124.8,68.7l10.6-7.1l-4.4-5.1c-11.2-3.9-20.8-5.9-27.5-6.9v5.8L124.8,68.7z"/>
	<path class="st1" d="M138.7,59.4c-2.6-1.1-5.2-2-7.7-2.9l4.4,5.1L138.7,59.4z"/>
	<path class="st0" d="M103.6,55.4l-10.1-6.3c-2.6,15.7-4.1,30.2-4.7,43.6l14.8-9.9V55.4z"/>
	<path class="st2" d="M103.6,82.9l-14.8,9.9c-0.2,4.9-0.3,9.6-0.3,14.2l15.1,11.3V82.9z"/>
	<polygon class="st4" points="181.5,118.3 160.3,90 124.8,68.7 103.6,82.9 103.6,118.3 131.9,139.6 174.4,160.8 	"/>
</g>
<path class="st3" d="M160.3,167.9h-4.1c1.4,1.6,2.8,3.3,4.1,5.1V167.9z"/>
<path class="st3" d="M160.3,266.3V256c-3.9,1.1-8.3,2.2-13.1,3.1L160.3,266.3z"/>
<path class="st3" d="M177.3,234.6c0,1.4,0,2.8,0,4.2h2.3L177.3,234.6z"/>
<path class="st0" d="M139,167.9h17.1c-7.5-8.3-16.4-13.9-26.2-17.7l-1.4,0.3L139,167.9z"/>
<polygon class="st2" points="128.6,150.5 82.3,160.8 139,167.9 "/>
<polygon class="st0" points="92.9,238.8 110.6,238.8 82.3,224.6 "/>
<path class="st5" d="M160.3,203.3V173c-1.3-1.8-2.7-3.5-4.1-5.1H139L160.3,203.3z"/>
<path class="st2" d="M177.3,234.6c-0.3-28-6.8-47.8-17-61.6v30.4L177.3,234.6z"/>
<path class="st1" d="M110.6,238.8l36.5,20.3c4.8-0.9,9.2-2,13.1-3.1v-17.2H110.6z"/>
<path class="st2" d="M160.3,256c10.1-2.9,16.6-5.7,16.6-5.7c0.2-4,0.4-7.8,0.4-11.5h-17V256z"/>
<path class="st5" d="M177.3,234.6l-17-31.3v35.4h17C177.3,237.4,177.3,236,177.3,234.6z"/>
<path class="st1" d="M61,196.3l-21.3-28.3l-16.3,3.3c3.7,5.9,7.8,12.4,24.9,40.4l34,13.1L61,196.3z"/>
<path class="st2" d="M29.6,155.1c-8.1,2.6-13.1,4.7-13.1,4.7c3.3,5.5,5.1,8.3,7,11.3l16.3-3.3L29.6,155.1z"/>
<path class="st6" d="M129.9,150.2c-0.7-0.2-1.3-0.5-2-0.7l0.6,1L129.9,150.2z"/>
<path class="st2" d="M92.9,238.8l16.3,21.8c13.3,1.9,26.7,0.7,37.9-1.5l-36.5-20.3H92.9z"/>
<path class="st1" d="M66.5,238.8c12.2,13.4,27.5,19.6,42.8,21.8l-16.3-21.8H66.5z"/>
<path class="st2" d="M82.3,224.6l-34-13.1c2.8,4.6,6,9.9,9.6,15.8c2.6,4.3,5.5,8.1,8.5,11.4h26.5L82.3,224.6z"/>
<path class="st0" d="M82.3,160.8l-51.5-6.1c-0.4,0.1-0.8,0.3-1.2,0.4l10.2,12.8L82.3,160.8z"/>
<path class="st5" d="M128.6,150.5l-0.6-1c-33.5-11.8-75.6-1.7-97.2,5.2l51.5,6.1L128.6,150.5z"/>
<polygon class="st4" points="82.3,160.8 39.8,167.9 61,196.3 82.3,224.6 110.6,238.8 160.3,238.8 160.3,203.3 139,167.9 "/>
<path class="st7" d="M188.9,252.3c0,0-61.3-248.1,233.1-236.4c0,0-23.5,72.2-31.6,136C382.3,215.7,306.2,283.2,188.9,252.3z"/>
<g>
	<path class="st8" d="M17.5,159.4c0,0,170.3-71.6,160.4,90.4c0,0-82.6,36.9-118.9-22.9S28.5,177.5,17.5,159.4z"/>
	<path class="st8" d="M17.5,159.4c0,0,170.3-71.6,160.4,90.4"/>
</g>
<path class="st2" d="M29.1,154.6l0.5,0.6c0.4-0.1,0.8-0.3,1.2-0.4L29.1,154.6z"/>
<path class="st8" d="M204.3,106.5C157.9,50.6,94.6,48.6,94.6,48.6c-6.4,38.4-6.4,69.8-2,95.5c44.1-0.4,90.4,19.3,85.3,105.4
	c21.6,7.7,42.4,9.8,56.5,10.2c-14.7-0.8-30.2-3.2-46.6-7.5C187.9,252.3,168.4,173.3,204.3,106.5z"/>
<path class="st1" d="M209.4,319"/>
</svg>
