<?xml version="1.0" encoding="utf-8"?>
<!-- Generator: Adobe Illustrator 22.0.0, SVG Export Plug-In . SVG Version: 6.00 Build 0)  -->
<svg version="1.1" id="Camada_1" xmlns="http://www.w3.org/2000/svg" xmlns:xlink="http://www.w3.org/1999/xlink" x="0px" y="0px"
	 viewBox="0 0 42.5 42.5" style="enable-background:new 0 0 42.5 42.5;" xml:space="preserve">
<style type="text/css">
	.st0{fill:#ABCC68;}
	.st1{fill:none;stroke:#FFFFFF;stroke-miterlimit:10;}
	.st2{fill:#FFFFFF;stroke:#FFFFFF;stroke-miterlimit:10;}
</style>
<g>
	<circle class="st0" cx="21.3" cy="21.3" r="21"/>
	<g>
		<path class="st1" d="M10.4,10.5h21.8c1.6,0,2.9,1.4,2.9,3.2v15c0,1.8-1.3,3.2-2.9,3.2H10.4c-1.6,0-2.9-1.4-2.9-3.2v-15
			C7.5,11.9,8.8,10.5,10.4,10.5z"/>
		<path class="st2" d="M25.5,21.5l-8.2,4.6c-0.2,0.1-0.5,0-0.5-0.2v-9.2c0-0.2,0.2-0.4,0.5-0.2l8.2,4.6
			C25.7,21.1,25.7,21.4,25.5,21.5z"/>
	</g>
</g>
</svg>
